<svg id="Layer_1" data-name="Layer 1" xmlns="http://www.w3.org/2000/svg" viewBox="0 0 2500 2034"><defs><style>.cls-1{fill:#fff;}</style></defs><title>blenderWhite</title><path class="cls-1" d="M2492.64,1132.66c-14.67-103.21-50.42-201.09-106.29-290.88-48.72-78.37-111.24-148.07-185.86-207.31l.2-.19L1417,32.35c-.57-.5-1.16-1-1.77-1.4C1389.16,11,1353.89,0,1315.92,0s-74.67,11-103.16,31c-30.64,21.41-48.16,49.8-49.38,80-1.12,28.21,12.33,55.34,38,76.5,50.44,39.8,100.77,80.46,151.16,121.17,48.91,39.53,99.3,80.24,149.45,119.87l-959.91-.65c-109.78,0-184.53,51.55-199.9,137.85C335.4,603.59,347.32,645.15,374,677c28.27,33.75,69.33,52.37,115.59,52.37l73.18,0c101.09,0,202.63-.25,304-.49l96.7-.22L92.28,1373.21l-3.46,2.53C40.16,1413,8.3,1465.33,1.42,1519.2-3.79,1560,5.73,1597.31,29,1627.09c27.69,35.51,70.92,55,121.74,55,49.93,0,100.87-18.92,143.51-53.37l470.46-385c-2,18.8-4.45,46.38-4.17,66.4.53,31.7,10.7,95.29,26.81,146.93,33.29,106.11,89.36,203.19,166.65,288.46,80.42,88.7,178.36,159,291.08,209,119.18,52.71,247.29,79.47,380.79,79.47h1.24c133.93-.33,262.45-27.51,382-80.82C2122,1902.63,2219.9,1832,2300,1743.32c77.18-85.69,133.18-182.94,166.4-289a725.66,725.66,0,0,0,26.22-321.7Zm-857,508.59c-294.22,0-532.81-213.43-532.81-476.73s238.6-476.7,532.81-476.7,532.8,213.43,532.8,476.7S1929.83,1641.25,1635.6,1641.25Zm307.27-518.62c4.34,78.58-27,151.55-82.17,205.57-56.07,55-136.08,89.59-225.55,89.59s-169.45-34.57-225.54-89.59c-55.09-54-86.42-127-82.1-205.51,4.22-76.33,41.46-143.71,97.54-191.42,55.15-46.91,129.21-75.53,210.1-75.53s154.94,28.63,210.09,75.53c56.11,47.71,93.36,115,97.63,191.36Z"/></svg>