<svg id="Layer_1" data-name="Layer 1" xmlns="http://www.w3.org/2000/svg" viewBox="0 0 2000 2000"><defs><style>.cls-1{fill:#fff;}</style></defs><title>cssWhite</title><path class="cls-1" d="M292,396v-2.36c3.14.1,6.28.3,9.42.3H1708.48c-1.27,15-2.43,29.08-3.68,43.16-2.2,24.68-4.47,49.36-6.67,74-1.73,19.4-3.38,38.8-5.11,58.2-2.21,24.68-4.5,49.36-6.7,74-1.73,19.4-3.35,38.8-5.08,58.2q-3.35,37.62-6.77,75.22-2.58,28.8-5.11,57.6c-2.21,24.49-4.48,49-6.66,73.46-2.13,23.9-4.13,47.82-6.25,71.72-2.23,25.27-4.55,50.54-6.81,75.81-1.7,19-3.35,38-5.07,57-2.21,24.49-4.51,49-6.68,73.46-2.13,23.9-4.1,47.81-6.24,71.72-2.19,24.48-4.56,49-6.74,73.44-2.15,24.1-4.09,48.22-6.25,72.32-2.56,28.6-5.34,57.18-7.89,85.78s-4.86,57.23-7.41,85.83c-2.57,28.8-5.38,57.58-7.95,86.37-2.55,28.61-4.86,57.23-7.41,85.84-2.57,28.8-5.49,57.56-7.82,86.38-.4,5-1.88,7-6.72,8.28q-103.44,28.45-206.76,57.32-180.36,50-360.75,99.86a21.64,21.64,0,0,1-10.85.44c-33.17-9-66.25-18.34-99.37-27.54l-368-102.13q-50.53-14-101-28.28c-2.13-.61-5.19-2.88-5.38-4.63-2-18.39-3.41-36.82-5-55.24q-2.54-28.8-5.11-57.61-3.32-37-6.67-74c-1.74-19.59-3.41-39.19-5.17-58.78-2.18-24.29-4.45-48.58-6.61-72.87-1.77-19.79-3.4-39.59-5.16-59.38-2.2-24.88-4.49-49.75-6.71-74.63-1.73-19.4-3.4-38.8-5.13-58.2q-3.31-37-6.67-74c-2.14-23.9-4.2-47.81-6.32-71.72q-3.33-37.32-6.7-74.63c-1.73-19.4-3.4-38.8-5.14-58.2-2.2-24.68-4.47-49.36-6.67-74-2.13-23.9-4.16-47.82-6.31-71.72-2.17-24.09-4.48-48.17-6.62-72.27-2.16-24.29-4.13-48.6-6.31-72.9-2.56-28.6-5.31-57.18-7.86-85.78-2.57-28.81-4.91-57.63-7.48-86.43-2.55-28.6-5.33-57.18-7.88-85.78-2.56-28.8-4.91-57.62-7.48-86.42C293.85,406.8,292.76,401.44,292,396Zm295.1,652.09c.85,8.76,1.63,16.35,2.31,23.95,4.35,48.4,8.82,96.8,12.91,145.22.88,10.4.71,9.06,9.86,9.07q297.24.12,594.48.18c1.77,0,3.55.1,5.31,0,3.79-.21,5.41,1.4,5.07,5.27-1,11-1.73,21.94-2.7,32.9-1.84,20.75-3.78,41.49-5.64,62.24-1.7,19-3.3,38-5,57-1.81,20-4,39.89-5.49,59.87-.91,11.76-.53,11.71-11.53,14.68q-91.36,24.66-182.72,49.29a18.72,18.72,0,0,1-9.11,0c-15.62-4-31.14-8.34-46.7-12.55q-70-18.92-140.06-37.76c-3.79-1-5.58-2.7-5.81-6.7-.49-8.24-1.32-16.47-2.06-24.7q-4.6-51.74-9.21-103.48c-.72-8.2-.58-8.24-8.49-8.25H618.76c-7.89,0-7.85,0-7.06,7.66.29,2.74.23,5.51.48,8.26q6.32,69.36,12.66,138.72,5.42,60,10.59,120c.33,3.84,1.7,5.35,5.33,6.35q177.6,49.24,355.19,98.58a18.17,18.17,0,0,0,9.2-.17q171.31-47.29,342.57-94.83c16.25-4.51,16.24-4.53,18-21,0-.39.13-.78.17-1.17q2.82-31.12,5.63-62.24c1.7-19,3.34-38,5-57,1.84-20.35,3.75-40.7,5.57-61.06,1.72-19.38,3.33-38.76,5.06-58.14,1.83-20.55,3.76-41.1,5.59-61.65,1.71-19.18,3.31-38.37,5-57.56,1.84-20.55,3.77-41.09,5.61-61.64,1.34-14.88,2.54-29.77,3.89-44.64,1.81-20.16,3.74-40.3,5.56-60.46,1.35-14.87,2.57-29.76,3.89-44.64,1.84-20.55,3.75-41.1,5.58-61.65,1.71-19.18,3.31-38.37,5-57.55,1.82-20.16,3.77-40.31,5.57-60.47,1.74-19.57,3.3-39.16,5-58.74,1.79-20,3.75-39.91,5.56-59.87.6-6.58,1-13.18,1.43-20H555.67a30.69,30.69,0,0,0-.23,4.05q3.63,40.26,7.32,80.53c2.61,28.41,5.3,56.81,7.79,85.23.69,7.9.43,7.94,8.07,7.95q218,.36,436.06.71,111.69.13,223.38,0c2,0,3.94.1,5.9,0,4-.17,5.15,1.91,4.82,5.55-2,22.31-3.92,44.63-6,66.94-3,33.07-6.15,66.13-9.19,99.2-.72,7.89-.64,7.92-8.61,7.93q-227.19.36-454.38.71-87.17.12-174.33,0Z"/><path class="cls-1" d="M1098,0V78H973.69V93.57h124V273.24H883.53V191.61h124.36V176.39H883.2v-8q0-80.35,0-160.73c0-2.55-.18-5.11-.27-7.66Z"/><path class="cls-1" d="M1355.69,0c.15,13.18.36,26.36.44,39.54.08,12.59,0,25.18,0,38.51H1231.66V93.52h124.09V273.39h-214V191.65h123.86v-15.4H1141.74c-.2-2.38-.5-4.24-.5-6.1q0-82.75,0-165.5a40.8,40.8,0,0,1,.51-4.65Z"/><path class="cls-1" d="M840.37,0V89.71H715.79v90h124.3v89.75H625.25V0Z"/></svg>