<svg id="Layer_1" data-name="Layer 1" xmlns="http://www.w3.org/2000/svg" viewBox="0 0 2000 2000"><defs><style>.cls-1{fill:#fff;}</style></defs><title>davinciWhite</title><path class="cls-1" d="M-.42,1000.29C-.42,850.2-.73,700.11-.28,550c.21-69.18,3.51-138.24,18.94-206.07C57.55,173,193.45,43.1,366.33,15.18,420.77,6.39,476.39,1.15,531.5.92q467.27-2,934.54-.34c74.42.16,149.3,3.36,220.59,27,165.2,54.76,264.66,169.08,298.68,339.58,13,64.88,14.51,130.92,14.51,196.89q0,446-.58,892.07c-.21,76.86-2.59,154.28-26.69,228.08-54.51,167-169.46,267.31-341.65,301.35-62.12,12.28-125.36,14.31-188.44,14.42q-451.48.78-903,.09c-72.41-.16-145.32-2.66-215.18-23.9-171.07-52-274.33-167.07-310-342.06C1.71,1572.47-.24,1509.66-.35,1446.93Q-.74,1223.61-.42,1000.29Zm1000.9-922v-.08q-194.19,0-388.39,0c-75.26,0-150.48.4-225.12,12.1-144.26,22.6-258.24,127.44-291.41,268.8-14.7,62.62-17.35,126.62-17.48,190.49q-.92,451.5,0,903c.1,57.8,3.31,115.57,14,172.66,26.39,141,133.92,251.32,273.78,280.83,66.89,14.11,134.83,16.18,202.72,16.31q431.48.85,863,.13c64.7-.08,129.38-2.41,193.3-14.26,140.06-26,250.94-133.42,280.88-272.51,14.47-67.25,16.59-135.61,16.64-204q.33-427.23-.18-854.46c-.05-63.12-2.34-126.13-11.85-188.72-21.79-143.43-124.44-256.69-265.49-291.7-62.1-15.41-125.69-18-189.19-18.34C1303.91,77.79,1152.2,78.31,1000.48,78.31Z"/><path class="cls-1" d="M639.24,1026.59c92.91,1.83,176.9,18.87,259.77,42.52,12,3.43,24,7,35.82,11,25.13,8.49,34.66,22.23,28.85,47.86-25.84,114-61.89,224-125.42,323.65-93.06,146.05-295.35,151.48-407.39,37-110.1-112.49-106.39-285.12,8.85-392.27C485.34,1054,540.09,1032.67,602,1029.1,616.53,1028.26,631,1027.15,639.24,1026.59Z"/><path class="cls-1" d="M998.88,363.14c136.71.87,253.48,106.13,268.77,240.72,7.2,63.4-12.8,118.81-42.86,172.07-41.67,73.81-96.61,137.39-155.28,198q-21.52,22.22-43.83,43.65c-15.82,15.26-27.85,16.47-46.8,5.29-4.16-2.45-8.49-4.89-12-8.15C892.49,945.1,823.52,871,773,781.56c-25.32-44.81-44.35-91.95-45-144.26-1.73-135.56,100.91-253.11,236-271.06C975.54,364.71,987.24,364.15,998.88,363.14Z"/><path class="cls-1" d="M1355.93,1028.31c51.49.59,101.89,6.08,148.31,30.35,102,53.3,159.59,170.47,140.29,284.3-19.67,116-111.14,207.49-226.71,222-108.43,13.58-196.27-22.56-257.39-116.31-49.12-75.33-79.81-158.51-104.88-244.07-7.7-26.27-14.32-52.93-20-79.72-4.46-21.1,4.92-35.51,25.1-41.91,75.11-23.84,151.43-42.39,229.95-50.63C1312.28,1030,1334.15,1029.59,1355.93,1028.31Z"/></svg>