<svg id="Layer_1" data-name="Layer 1" xmlns="http://www.w3.org/2000/svg" viewBox="0 0 2000 2000"><defs><style>.cls-1{fill:#fff;}</style></defs><title>htmlWhite</title><path class="cls-1" d="M997,1999.65c-3.07-1.56-6-3.67-9.23-4.58q-136.38-38-272.83-75.79-142.08-39.33-284.2-78.53c-9.78-2.7-9.88-3-10.79-13.17q-6.69-75.27-13.44-150.54c-3.56-40.47-6.88-81-10.49-121.44-4.22-47.26-8.72-94.5-12.94-141.77-3.58-40.15-6.87-80.32-10.44-120.46s-7.43-80.27-11-120.41-6.88-80.32-10.46-120.47c-3.54-39.82-7.34-79.62-10.9-119.43-2.93-32.7-5.62-65.42-8.52-98.12s-6-65.38-8.94-98.08c-2.24-24.93-4.35-49.87-6.56-74.8-2.31-25.9-4.7-51.79-7-77.69-2.23-24.93-4.38-49.86-6.61-74.79q-4.51-50.5-9.06-101c-.39-4.48-.49-9-.76-14.19H1706.4q-64.28,721-128.54,1442.08c-3.83,1.33-7.64,2.91-11.59,4q-128,35.49-256,70.88-150.51,41.73-301,83.63c-3.62,1-6.94,3.09-10.4,4.67ZM610.47,1312.77c0,3.81-.25,7,0,10.12,3.6,39.49,7.36,79,10.9,118.46,4.21,46.94,8.23,93.9,12.35,140.85.82,9.29.89,9.39,9.8,11.88q173.48,48.47,346.94,97a28.61,28.61,0,0,0,16.17-.08c26.81-7.67,53.71-15,80.58-22.48q133.11-37,266.2-74c9.44-2.62,9.6-2.69,10.5-12.39,1.63-17.48,3-35,4.51-52.46q3.18-36.4,6.48-72.82c2.32-25.57,4.77-51.12,7-76.69,2.23-24.92,4.26-49.86,6.5-74.78,2.3-25.57,4.83-51.11,7.11-76.68,2.23-24.93,4.17-49.87,6.42-74.79,2.93-32.36,6.06-64.71,9-97.06.29-3.12,0-6.28,0-10.66H1088.35c-107.19,0-214.38.6-322.32.06-5.52-60.6-11.11-119.89-16.16-180.12h677.66c5.84-59.56,11.33-118.49,16.39-177.3-11.54-2.46-882.67-1.75-889.53.43.45,12.05,45.37,527.67,50,535.58h12.79l585.47.57c1.3,0,2.61-.08,3.9,0,2.51.2,5,.51,9,.93-6.79,76.12-13.3,151.66-20.5,226.81-3.57,1.24-6,2.25-8.46,2.92q-89.74,24-179.49,48a31.8,31.8,0,0,1-17.2.12c-43.53-11.82-87.13-23.39-130.71-35l-57.32-15.33c-2.06-23.82-3.78-47.43-6.23-71s-3.15-47-6.93-70.13Z"/><path class="cls-1" d="M1316.45,1V268.79h-89.39V139.92l-2-.81c-10.17,15.17-19.94,30.62-29.93,45.92s-20.14,30.94-31,47.6l-61.34-94.32c-2.92,8.1-1.23,15.11-1.53,21.91-.32,7.14-.07,14.3-.07,21.46v87.15h-87.83V2.26c7.21-2.28,70.44-3.11,94.31-1.19l56.95,93.26c2.58-3.77,4.46-6.26,6.07-8.92,15.75-25.81,31.58-51.56,47-77.53,3.18-5.33,6.56-7.69,13.06-7.59,25.68.42,51.37.16,77.06.2C1310.41.49,1313,.77,1316.45,1Z"/><path class="cls-1" d="M513.62,180.34v88.4H423.9V2c7.33-2,78.08-2.27,89-.19V88.4h82.59V1.14h88.32c1.95,7,2.63,252.83.76,266.65-6.83,2.12-70.12,2.89-88.32.92-1.6-29.1.25-58.49-1-88.37Z"/><path class="cls-1" d="M973.14,1.11V89.78h-79v179H804V90H725.79V1.11Z"/><path class="cls-1" d="M1577.9,180.13v88.65H1362V1h89v179.1Z"/></svg>