<svg id="Layer_1" data-name="Layer 1" xmlns="http://www.w3.org/2000/svg" viewBox="0 0 2000 2000"><defs><style>.cls-1{fill:#fff;}</style></defs><title>illustratorWhite</title><path class="cls-1" d="M2000,362.53V1637.47c-.7,4-1.58,8-2.06,12.07-1.54,12.86-2.11,25.9-4.51,38.59-27.88,147.21-147.56,261.1-296.3,282.36-8.11,1.15-16.18,2.52-24.27,3.8H330.05c-2.76-.65-5.48-1.63-8.27-1.9-73.41-7.24-138.57-34.49-194.43-82.54C55.48,1828,14.57,1749.54,4.73,1655c-.61-5.91-2.46-11.69-3.73-17.54V362.53c1.29-5.83,2.83-11.61,3.83-17.48,2.49-14.66,3.94-29.54,7.21-44C45.53,153.15,170,45.64,314.29,29.39c8.46-.95,16.85-2.44,25.27-3.68H1663.35c3.38.69,6.74,1.57,10.15,2,11.92,1.57,24,2.22,35.76,4.59,120.67,24.38,207.68,92.21,259.88,203.78,17.29,37,27.57,76.1,28.92,117.24C1998.16,356.42,1999.33,359.47,2000,362.53ZM1135.67,1399.14h78.92c2.54,0,5.08.08,7.61-.07,9.23-.55,11.63-3.87,9.3-13.07-.78-3.06-1.93-6-3-9l-126.39-356.78q-85.9-242.49-171.79-485c-4.33-12.22-5.12-13-16.48-13q-102.69-.1-205.39,0c-11.09,0-13,1.78-13,12.57.07,29.56-6.35,57.77-16,85.54q-114.51,329.21-228.76,658.5c-11.86,34.14-23.81,68.25-35.45,102.46-4.56,13.42-1.33,17.69,12.45,17.88,2.22,0,4.44,0,6.65,0H571.25c2.22,0,4.44,0,6.65,0,10.11-.29,14-3.15,17.43-12.9.95-2.69,1.76-5.43,2.64-8.14q28.1-86.86,56.2-173.73c4.38-13.5,2.71-12.51,16.92-12.51q141.67-.06,283.35,0c15.74,0,13.43-1.44,18.48,13.13q31.25,90.33,62.33,180.71c4,11.59,6.62,13.41,18.65,13.44C1081.15,1399.17,1108.41,1399.13,1135.67,1399.14Zm189.16-329.46q0,155.07,0,310.12c0,3.81-.14,7.63.19,11.41.69,7.8,4.27,11.22,12.14,11.86,2.52.2,5.06.12,7.6.12h147.38c2.53,0,5.08.1,7.6-.12,6.71-.58,9.7-3.22,10.62-9.94a83.28,83.28,0,0,0,.37-11.4q0-312,0-624c0-2.54.07-5.08-.09-7.61-.54-8.92-3.48-11.9-12.18-12.35-2.53-.14-5.07-.07-7.6-.07H1344.45c-18.88,0-19.61.74-19.61,20Q1324.82,913.68,1324.83,1069.68ZM1419.06,668c40-.75,70.82-16.89,90.14-52.12,16.47-30,17.8-62,6.36-93.85-12.07-33.6-36.09-54.4-71.58-61.1a131.43,131.43,0,0,0-39.74-1.17c-41.5,4.84-76.58,35.25-85.66,75.6-2.54,11.28-3.07,23.28-2.73,34.89,1.37,45.62,30.71,82.48,74.2,93.47C1399.48,666.11,1409.38,666.63,1419.06,668Z"/><path class="cls-1" d="M811.33,678.11C844.17,793.36,882,906.85,918,1020.84c-8.65,3-200.88,3.2-209.79.62C741.78,907,781.18,794.16,811.33,678.11Z"/></svg>