<svg id="Layer_1" data-name="Layer 1" xmlns="http://www.w3.org/2000/svg" viewBox="0 0 2000 2000"><defs><style>.cls-1{fill:#fff;}</style></defs><title>indesignWhite</title><path class="cls-1" d="M-1,1637.48V360.6c1.24-5.52,2.75-11,3.65-16.57,1.51-9.38,2.13-18.92,4-28.22,24-120.35,91.79-206.88,202.54-259.28,47.42-22.44,98-31.08,150.51-31q640.65.45,1281.29.18c6,0,12.09-.3,18.08.18,15.79,1.26,31.8,1.56,47.27,4.54,120.76,23.22,208.29,90.26,261.49,201.11,18.11,37.73,28.82,77.77,30.35,119.92.11,3.08,1.2,6.13,1.84,9.19V1637.48c-.66,3.69-1.46,7.36-2,11.07-2,14.72-2.85,29.65-5.83,44.15-30.55,148.43-155.27,261.56-305.88,278-7.19.79-14.28,2.4-21.42,3.63H336c-7.14-1.24-14.23-2.89-21.42-3.67-52.85-5.78-102.15-22.3-146.79-51C70.91,1857.29,15.6,1768.73,2.62,1654,2,1648.46.23,1643-1,1637.48ZM1474.29,866.21v-391c0-3.49.08-7-.08-10.46-.39-8.76-2-10.29-10.9-10.72-1.9-.09-3.81-.06-5.71-.06q-74.25,0-148.49,0c-16.5,0-16.82.35-16.83,17.24q0,118.45,0,236.89,0,5.71-.31,11.41c-.2,3.77-2.37,5.75-6.1,5.89-1.9.07-3.8-.09-5.7-.19-35.54-1.94-71-1.61-106.36,3-50.57,6.63-98.6,20.86-142.72,46.81C950.21,822.62,895.86,891.19,871.55,982c-19.33,72.14-16,144.67,4.77,216,20.85,71.55,64.37,126.82,128.29,165,55.9,33.41,117.68,48.08,182.27,50.88,40.92,1.78,81.7-1.37,122.31-7,53.33-7.45,105.06-20.68,155-40.85,14.6-5.9,15.79-7.8,15.21-23.33-.07-1.9-.26-3.8-.41-5.69-1-12.64-2.49-25.25-2.91-37.91-.89-26.92-1.67-53.86-1.72-80.8Q1474.11,1042.23,1474.29,866.21ZM725.55,965.15q0-208.75,0-417.51c0-3.8.19-7.63-.18-11.41-.74-7.54-4.1-10.62-11.6-11.09-1.9-.12-3.81,0-5.71,0H561.51c-17.06,0-19,2-19,19.16q0,148.37,0,296.73,0,269.63,0,539.25a94.67,94.67,0,0,0,.51,13.28c1.1,7.83,4.12,10.39,11.86,10.91,1.9.13,3.81.06,5.71.06H707.1c1.58,0,3.17,0,4.75,0,9.68-.4,13.19-3.76,13.62-13.22.18-3.8.07-7.61.07-11.41Q725.56,1172.49,725.55,965.15Z"/><path class="cls-1" d="M1292.28,1065.63q0,85.14,0,170.27c0,14.81-1,16.63-15.68,18-38.94,3.51-77.73,4.8-116-6.75-49.63-15-82.22-47.48-99.94-95.34-12.14-32.81-16.54-66.79-13.83-101.85,1.58-20.37,4.37-40.36,11.5-59.5,13.37-35.86,37.89-62.76,69.64-83.11,42.25-27.08,88.76-36,138.34-30.19,6,.7,12,1.46,17.84,2.73,6.53,1.4,7.58,2.95,8,9.81.19,3.16.1,6.34.1,9.51Q1292.28,982.41,1292.28,1065.63Z"/></svg>