<svg id="Layer_1" data-name="Layer 1" xmlns="http://www.w3.org/2000/svg" viewBox="0 0 2000 2000"><defs><style>.cls-1{fill:#fff;}</style></defs><title>jsWhite</title><path class="cls-1" d="M0,1999.71V-.53H2000.24V1999.71Zm1190.75-349.82c1.61,3.57,2.63,6.25,4,8.76,19.66,36.43,44.85,68.49,76.26,95.51,65.74,56.56,143.48,82.07,228.72,87.87a478.69,478.69,0,0,0,102.13-3.82c42.48-6.23,83-18.39,120.48-39.76,49.73-28.4,86.58-68.36,106.5-122.53,21.33-58,21.19-117.24,6.43-176.59-13-52.14-43.11-93.29-84.32-126.87-35.3-28.76-74.83-50.56-116-69.42-36.61-16.78-73.73-32.43-110.52-48.82-19.32-8.61-38.12-18.22-55.18-30.9-20.3-15.08-32.52-34.55-35.51-60.22-4.56-39.18,16.29-73.45,53.8-85.82,16.61-5.47,33.64-6.17,51-4.55,26.64,2.47,49.49,12.61,68.69,31.15,12,11.62,21.59,25.12,30.21,39.35,1.77,2.94,3.78,5.73,6,9.08l147-94.41c-5.89-9.44-11.09-18.37-16.85-26.93-33.05-49.1-75.88-86.12-132.3-106.08-28.68-10.14-58.36-15.14-88.65-17.25-51.91-3.62-102.76,1.25-151.26,20.82-77.13,31.12-127.94,86.16-148,167.73-8.91,36.16-8.48,72.79-3.07,109.47,6.7,45.42,23.9,86.2,53.48,121.53,25.61,30.59,57.17,53.81,91.38,73.75,36.89,21.5,76.52,37.14,115.38,54.49,29.34,13.11,58.34,27,87.14,41.29,13.43,6.64,25.21,16,35.69,26.89,30.17,31.39,33.48,91.92-11.05,124.82a117.91,117.91,0,0,1-33.62,17.41c-27,8.79-54.55,10.72-82.79,8-44.07-4.16-82-21.09-114-51.69-16.3-15.62-29.9-33.4-42.12-52.31-1.86-2.86-4-5.56-6.29-8.79ZM528,1669.55a16.44,16.44,0,0,0,.19,3.08,27.35,27.35,0,0,0,1.45,3.6c29.42,59.14,71.94,105.49,131.81,134.84,40.61,19.9,83.77,29.4,128.77,31.09,40.14,1.5,79.91-1,118.8-11.89,85.29-24,141.43-77.84,167.07-163,10.68-35.52,14.47-72,14.5-108.82q.24-314.62.07-629.25c0-3.47-.35-6.95-.58-11.12-3.91-.29-7.08-.74-10.24-.74q-83.89-.06-167.8,0c-3.4,0-6.8.61-10.82,1v14.6q0,305.85,0,611.69c0,8.78.18,17.58-.31,26.34-1.07,19.2-3.55,38.17-11.33,56.06-8.48,19.51-22.35,33.56-42.64,40.21a135.36,135.36,0,0,1-75,2.89c-23.85-5.73-42.19-20.07-56.57-39.21-10.13-13.47-18.69-28.12-27.9-42.27-2.27-3.48-4.33-7.09-7-11.43Z"/></svg>