<svg id="Layer_1" data-name="Layer 1" xmlns="http://www.w3.org/2000/svg" viewBox="0 0 2000 2000"><title>Artboard 5</title><path d="M707.8,538H654.43a38.5,38.5,0,0,0-27.22,11.28L405.46,771a38.47,38.47,0,0,0-11.27,27.23l0,223.33a38.5,38.5,0,0,0,11.28,27.22l65.72,65.72L503.68,1147c16.44,16.44,44.55,4.8,44.55-18.45V753.1a38.52,38.52,0,0,1,11.28-27.23L719.39,566C729.72,555.66,722.41,538,707.8,538Z"/><path d="M1593.22,1220l-208.71-208.71a38.5,38.5,0,0,0-27.22-11.28H894.73a38.5,38.5,0,0,0-38.5,38.5v77a38.5,38.5,0,0,0,38.5,38.5h507.66a38.5,38.5,0,0,1,27.22,11.28l139.63,139.61c12.91,12.92,35,3.77,35-14.49v-43.82A37.59,37.59,0,0,0,1593.22,1220Z"/><path d="M1296.23,538H870.5a34.41,34.41,0,0,0-24.35,10.09L635.32,758.91a34.45,34.45,0,0,0-10.09,24.36v471a34.44,34.44,0,0,0,10.09,24.35l207.59,207.59a34.4,34.4,0,0,0,24.35,10.08H904c21.37,0,32.07-25.84,17-41L789.32,1323.7a34.44,34.44,0,0,1-10.09-24.35v-553a54.27,54.27,0,0,1,15.91-38.4h0A54.28,54.28,0,0,1,833.54,692h363a22.67,22.67,0,0,1,22.67,22.68v31.64A22.67,22.67,0,0,1,1196.56,769H890.67a34.44,34.44,0,0,0-34.44,34.44v85.12A34.44,34.44,0,0,0,890.67,923h448.12a34.44,34.44,0,0,0,34.44-34.44V572.44A34.44,34.44,0,0,0,1338.79,538Z"/><path d="M914.53,1257.74H905a9.57,9.57,0,0,1-9.58-9.57V1229a9.57,9.57,0,0,0-9.57-9.58h0a9.58,9.58,0,0,0-9.58,9.58v24.76a9.57,9.57,0,0,0,2.81,6.77l6.77,6.77,6.77,6.77a9.57,9.57,0,0,0,6.77,2.81h24.76a9.58,9.58,0,0,0,9.58-9.58h0a9.58,9.58,0,0,0-9.58-9.58Z"/><path d="M991.14,1219.44H962.41a9.57,9.57,0,0,0-9.57,9.58v24.76a9.6,9.6,0,0,0,2.8,6.77l6.77,6.77,6.77,6.77a9.57,9.57,0,0,0,6.77,2.81h24.76a9.58,9.58,0,0,0,9.58-9.58V1229a9.58,9.58,0,0,0-9.58-9.58Zm-9.58,38.3h0a9.57,9.57,0,0,1-9.57-9.57h0a9.58,9.58,0,0,1,9.57-9.58h0a9.58,9.58,0,0,1,9.58,9.58h0A9.57,9.57,0,0,1,981.56,1257.74Z"/><path d="M1077.32,1229l-6.77-6.77a9.57,9.57,0,0,0-6.77-2.81H1039a9.58,9.58,0,0,0-9.58,9.58v38.3a9.58,9.58,0,0,0,9.58,9.58h38.3a9.57,9.57,0,0,0,9.57-9.58v-24.76a9.58,9.58,0,0,0-2.8-6.77Zm-28.73,19.15h0a9.58,9.58,0,0,1,9.58-9.58h0a9.57,9.57,0,0,1,9.57,9.58h0a9.56,9.56,0,0,1-9.57,9.57h0A9.57,9.57,0,0,1,1048.59,1248.17Z"/><path d="M1383.66,1229l-6.77-6.77a9.57,9.57,0,0,0-6.77-2.81h-24.76a9.58,9.58,0,0,0-9.58,9.58v38.3a9.58,9.58,0,0,0,9.58,9.58h38.3a9.57,9.57,0,0,0,9.57-9.58v-24.76a9.58,9.58,0,0,0-2.8-6.77Zm-28.73,19.15h0a9.58,9.58,0,0,1,9.58-9.58h0a9.57,9.57,0,0,1,9.57,9.58h0a9.56,9.56,0,0,1-9.57,9.57h0A9.57,9.57,0,0,1,1354.93,1248.17Z"/><path d="M1554.09,809l-12.55-12.55a12.69,12.69,0,0,0-18,0L1511,809a12.7,12.7,0,0,1-18,0l-12.55-12.55a12.7,12.7,0,0,0-18,0L1450,809a12.7,12.7,0,0,0,0,18l12.55,12.56a12.69,12.69,0,0,1,0,18L1450,870a12.72,12.72,0,0,0,0,18l12.55,12.55a12.7,12.7,0,0,0,18,0L1493.08,888a12.7,12.7,0,0,1,18,0l12.55,12.55a12.69,12.69,0,0,0,18,0L1554.09,888a12.7,12.7,0,0,0,0-18l-12.55-12.55a12.7,12.7,0,0,1,0-18L1554.09,827A12.69,12.69,0,0,0,1554.09,809Z"/><path d="M1163.5,1233v-8a5.59,5.59,0,0,0-5.59-5.59h-46.28A5.59,5.59,0,0,0,1106,1225v8a5.59,5.59,0,0,0,5.59,5.58h7.9a5.59,5.59,0,0,1,5.59,5.59v8a5.58,5.58,0,0,1-5.59,5.58h0a5.59,5.59,0,0,0-4,9.54l0,0,7.94,7.94a5.59,5.59,0,0,0,4,1.64h30.4a5.59,5.59,0,0,0,5.59-5.59v-8a5.59,5.59,0,0,0-5.59-5.59h-8.05a5.58,5.58,0,0,1-5.59-5.58v-8a5.59,5.59,0,0,1,5.59-5.59h8.05A5.58,5.58,0,0,0,1163.5,1233Z"/><path d="M1220.87,1219.44h-32.69a5.61,5.61,0,0,0-5.61,5.61v37.81a5.58,5.58,0,0,0,1.65,4l7.93,7.93h0a5.61,5.61,0,0,0,9.57-4v-7.44a5.61,5.61,0,0,1,5.61-5.61h27.09a5.61,5.61,0,0,0,5.61-5.6v-27.09a5.61,5.61,0,0,0-5.61-5.61Z"/><path d="M1316.63,1229h0a9.58,9.58,0,0,0-9.58-9.58h-38.3a9.57,9.57,0,0,0-9.57,9.58v24.76a9.6,9.6,0,0,0,2.8,6.77l6.77,6.77,6.77,6.77a9.57,9.57,0,0,0,6.77,2.81h24.76a9.58,9.58,0,0,0,9.58-9.58h0a9.58,9.58,0,0,0-9.58-9.58h0a9.57,9.57,0,0,1-9.57-9.57h0a9.58,9.58,0,0,1,9.57-9.58h0A9.57,9.57,0,0,0,1316.63,1229Z"/><path d="M1446.3,578.31v45.27a14.54,14.54,0,0,0,14.54,14.54h1.38a14.53,14.53,0,0,1,14.54,14.53v8.1a14.54,14.54,0,0,0,14.53,14.54h22.46a14.54,14.54,0,0,0,14.54-14.54v-8.1a14.52,14.52,0,0,1,14.53-14.53h.46a14.53,14.53,0,0,0,14.53-14.54V578.31a14.52,14.52,0,0,0-14.53-14.53h-82.44A14.53,14.53,0,0,0,1446.3,578.31Zm30.46,37.17h0A14.54,14.54,0,0,1,1462.22,601h0a14.54,14.54,0,0,1,14.54-14.54h0A14.53,14.53,0,0,1,1491.29,601h0A14.53,14.53,0,0,1,1476.76,615.48Zm51.53,0h0A14.54,14.54,0,0,1,1513.75,601h0a14.54,14.54,0,0,1,14.54-14.54h0A14.54,14.54,0,0,1,1542.82,601h0A14.54,14.54,0,0,1,1528.29,615.48Z"/></svg>