<svg id="Layer_1" data-name="Layer 1" xmlns="http://www.w3.org/2000/svg" viewBox="0 0 2000 2000"><defs><style>.cls-1{fill:#fff;}</style></defs><title>photoshopWhite</title><path class="cls-1" d="M1,1643.68V356.1c2.25-15,3.86-30.1,6.86-44.93C41.93,142.58,185,25.45,357.68,25.37q642.81-.32,1285.62.29a365.5,365.5,0,0,1,80.06,8.6c165,37.63,276.52,178.78,276.57,348.62q.16,617.06-.2,1234.11a397.63,397.63,0,0,1-5.45,64.25c-23.54,142.66-136.17,258.45-277.48,285.9-15.78,3.06-31.78,5-47.67,7.47H331.93c-12.76-1.89-25.55-3.6-38.28-5.68-137.24-22.48-253-131.74-283-267.43C6.47,1682.44,4.15,1663,1,1643.68ZM451.51,964q0,211.56,0,423.12c0,14.27,1,15.25,15.09,15.27q73.21.06,146.44,0c16.84,0,17.71-.9,17.71-17.82,0-83,.13-166.08-.17-249.11,0-8.86,1.95-12.38,11.48-11.9,20.57,1,41.18,1.29,61.78,1.39,58.83.28,117.13-4.1,173.68-21.82,76.66-24,136.36-69.39,172.62-142,28.3-56.65,34.37-117.63,27.18-179.75-11.49-99.19-61.37-172.8-150.87-218.23C867.61,533.3,804.08,522,738.84,522.11c-90,.14-180,2.56-270,4-17.32.28-17.34.3-17.34,17.62Q451.5,753.89,451.51,964Zm718.8,332.15c0,16.48-.22,33,0,49.43.56,35-6.76,32.32,32.9,47,57.79,21.36,118.12,27.57,179.29,27.28,42-.2,83.54-4.63,123.47-18.34,84.42-29,138.06-84.36,146.32-176.23,6.58-73.19-21.61-130.87-83.72-170.15-26.64-16.86-55.32-30.76-83.93-44.17-32.34-15.16-65.92-27.65-98.38-42.56a106.56,106.56,0,0,1-30-21.22c-21.48-21.41-13.18-54.31,15.74-63.61a145.36,145.36,0,0,1,33.43-6.51c47.59-3.57,94.22,3.25,139.82,16.35,18.12,5.2,35.4,13.49,52.89,20.79,13.79,5.76,20.86,1.59,20.91-13.11.06-16.79,0-33.59,0-50.38,0-24.72.06-49.44,0-74.16-.06-16.23-1.92-19.28-16.82-24.5-12.23-4.28-24.53-8.76-37.17-11.35a616,616,0,0,0-180.49-10c-47.9,4.4-92.13,18.84-131.78,46.68-94.35,66.24-115.77,214.7-14.95,299.23,27.92,23.4,59.49,40.91,92.55,55.61,31.49,14,64,25.88,95.31,40.17a130.3,130.3,0,0,1,36,24c20.62,19.88,14.92,50.76-11.74,61.24a161.39,161.39,0,0,1-51.53,11c-76,3.13-147.72-13.43-214.45-50.46-10.92-6.07-13.62-4.47-13.69,8.51C1170.23,1249.89,1170.32,1273,1170.31,1296.16Z"/><path class="cls-1" d="M632,968.73V956.11c0-86.2.18-172.4-.25-258.6,0-9.85,3.07-12.76,12.25-12.58,40.53.78,81.24-.87,121.52,2.59,22.8,2,46.21,9.32,67,19.15,41.56,19.61,62,55.61,66.18,100.63,2.06,22.45.74,45-6.41,66.75-13,39.66-42.36,63.05-79.81,77-32.27,12-66,17.46-100.54,17.65C685.76,968.85,659.53,968.73,632,968.73Z"/></svg>